<svg width="35" height="35" viewBox="0 0 35 35" fill="none" xmlns="http://www.w3.org/2000/svg">
<path d="M8.38574 30.124H11.5645C11.8574 30.124 12.0771 30.2119 12.2969 30.4316L14.5527 32.6729C16.3984 34.5332 18.1123 34.5186 19.958 32.6729L22.2139 30.4316C22.4482 30.2119 22.6533 30.124 22.9609 30.124H26.125C28.7471 30.124 29.9629 28.9229 29.9629 26.2861V23.1221C29.9629 22.8145 30.0508 22.6094 30.2705 22.375L32.5117 20.1191C34.3721 18.2734 34.3574 16.5596 32.5117 14.7139L30.2705 12.458C30.0508 12.2383 29.9629 12.0186 29.9629 11.7256V8.54688C29.9629 5.93945 28.7617 4.70898 26.125 4.70898H22.9609C22.6533 4.70898 22.4482 4.63574 22.2139 4.41602L19.958 2.1748C18.1123 0.314453 16.3984 0.329102 14.5527 2.1748L12.2969 4.41602C12.0771 4.63574 11.8574 4.70898 11.5645 4.70898H8.38574C5.76367 4.70898 4.54785 5.91016 4.54785 8.54688V11.7256C4.54785 12.0186 4.47461 12.2383 4.25488 12.458L2.01367 14.7139C0.15332 16.5596 0.167969 18.2734 2.01367 20.1191L4.25488 22.375C4.47461 22.6094 4.54785 22.8145 4.54785 23.1221V26.2861C4.54785 28.9082 5.76367 30.124 8.38574 30.124ZM15.6221 24.5723C15.124 24.5723 14.7139 24.3818 14.333 23.8691L10.6562 19.3574C10.4365 19.0645 10.3047 18.7275 10.3047 18.4053C10.3047 17.7314 10.8174 17.1895 11.4912 17.1895C11.9014 17.1895 12.2236 17.3359 12.5898 17.8193L15.5635 21.6572L21.8184 11.6084C22.0967 11.1543 22.4775 10.9346 22.873 10.9346C23.5029 10.9346 24.1035 11.374 24.1035 12.0479C24.1035 12.3848 23.9131 12.7217 23.7373 13.0146L16.8525 23.8691C16.5449 24.3379 16.1201 24.5723 15.6221 24.5723Z" fill="#0186D1"/>
</svg>
