<svg width="28" height="23" viewBox="0 0 28 23" fill="none" xmlns="http://www.w3.org/2000/svg">
<path d="M0.735352 11.4238C0.735352 11.79 0.896484 12.127 1.18945 12.4053L10.916 22.1172C11.209 22.3955 11.5166 22.5273 11.8682 22.5273C12.5859 22.5273 13.1572 22 13.1572 21.2676C13.1572 20.916 13.0254 20.5645 12.791 20.3447L9.50977 17.0049L4.57324 12.5078L8.11816 12.7275H26.6484C27.4102 12.7275 27.9375 12.1855 27.9375 11.4238C27.9375 10.6621 27.4102 10.1201 26.6484 10.1201H8.11816L4.58789 10.3398L9.50977 5.84277L12.791 2.50293C13.0254 2.26855 13.1572 1.93164 13.1572 1.58008C13.1572 0.847656 12.5859 0.320312 11.8682 0.320312C11.5166 0.320312 11.209 0.4375 10.8867 0.759766L1.18945 10.4424C0.896484 10.7207 0.735352 11.0576 0.735352 11.4238Z" fill="black"/>
</svg>
