<svg width="22" height="21" viewBox="0 0 22 21" fill="none" xmlns="http://www.w3.org/2000/svg">
<path d="M11 21C10.6603 20.9996 10.3287 20.8934 10.0481 20.6954C5.89215 17.7778 4.09258 15.7773 3.09999 14.5266C0.984717 11.8606 -0.027969 9.12352 0.000587209 6.15945C0.0339027 2.76281 2.669 0 5.8747 0C8.20573 0 9.82021 1.35789 10.7604 2.48883C10.7902 2.52429 10.827 2.55273 10.8684 2.57222C10.9097 2.59171 10.9546 2.60179 11 2.60179C11.0454 2.60179 11.0903 2.59171 11.1316 2.57222C11.173 2.55273 11.2098 2.52429 11.2396 2.48883C12.1798 1.3568 13.7943 0 16.1253 0C19.331 0 21.9661 2.76281 21.9994 6.16C22.028 9.12461 21.0142 11.8617 18.9 14.5272C17.9074 15.7779 16.1079 17.7784 11.9519 20.6959C11.6713 20.8938 11.3396 20.9997 11 21Z" fill="#D94F4F"/>
</svg>
