
<svg width="248" height="250" viewBox="0 0 248 250" fill="none" xmlns="http://www.w3.org/2000/svg">
<g clip-path="url(#clip0_97_70)">
<path d="M202.747 199.804L206.518 203.499C207.345 204.306 208.127 205.157 208.861 206.049C209.441 206.671 209.86 207.426 210.079 208.248L211.578 206.727C211.349 205.894 210.985 205.104 210.5 204.388C209.91 203.478 209.227 202.632 208.462 201.862C208.462 201.862 204.598 198.073 204.574 198.026C204.197 197.684 203.702 197.5 203.192 197.511C202.66 197.57 202.164 197.81 201.787 198.19L193.425 206.727L194.737 208.014L202.747 199.804Z" fill="#002968"/>
<path d="M210.055 210.704L204.34 205.113L202.63 206.844L208.345 212.458H208.322L206.846 213.955L201.155 208.365L199.421 210.095L205.136 215.709L202.747 218.142L204.012 219.382V219.405L216.051 207.148L214.787 205.885L210.055 210.704Z" fill="#002968"/>
<path d="M128.591 231.194V236.246H126.038V231.1H123.696V241.439C123.332 241.616 122.946 241.742 122.548 241.813C122.033 241.931 121.506 241.985 120.978 241.977H117.114V233.51H121.541V231.825H114.514V241.837C114.502 242.11 114.548 242.382 114.649 242.636C114.75 242.89 114.903 243.12 115.099 243.31C115.524 243.651 116.054 243.833 116.598 243.825H120.744C121.298 243.833 121.85 243.762 122.384 243.614C122.819 243.487 123.23 243.289 123.602 243.03V250.047H125.944V238.351H128.591V250.047H130.933V231.334L128.591 231.194Z" fill="#002968"/>
<path d="M86.3831 224.177L88.7254 225.323C88.7254 225.323 80.8319 242.305 80.8553 242.328L78.513 241.205C78.513 241.205 86.4065 224.2 86.3831 224.177ZM79.8247 223.662L79.0283 225.37C78.2718 226.873 78.0409 228.586 78.3725 230.235C78.5893 231.649 79.3237 232.933 80.4337 233.837L78.7941 234.492C77.9071 233.778 77.1808 232.885 76.6626 231.872C76.164 230.83 75.9307 229.681 75.9834 228.527C75.1275 229.315 74.0892 229.877 72.9618 230.165C71.8428 230.408 70.6846 230.408 69.5656 230.165L69.0268 228.481C70.4281 228.775 71.8892 228.515 73.1024 227.756C74.5783 226.928 75.7392 225.637 76.405 224.083L77.2951 222.446L73.969 220.925L74.6717 219.405L83.9237 223.662L83.221 225.206L79.8247 223.662Z" fill="#002968"/>
<path d="M176.818 234.024C176.729 233.766 176.587 233.528 176.402 233.327C176.216 233.126 175.991 232.965 175.741 232.855C175.236 232.658 174.676 232.658 174.172 232.855L163.28 236.995L163.936 238.726L174.406 234.773L176.373 239.919L178.716 239.03L176.818 234.024Z" fill="#002968"/>
<path d="M173.211 224.527L171.736 220.645L169.37 221.533L173.281 231.825L175.647 230.936L173.797 226.118L176.631 225.065L176.022 223.451L173.211 224.527Z" fill="#002968"/>
<path d="M167.285 225.393L168.292 224.995L167.707 223.452L163.725 224.949L163.116 223.288L160.774 224.223L161.078 224.995L161.406 225.884L157.448 227.381L158.033 228.948L159.04 228.551L160.586 227.966C160.179 228.528 159.906 229.176 159.79 229.861C159.664 230.536 159.729 231.232 159.977 231.872C160.174 232.409 160.485 232.896 160.89 233.3C161.295 233.704 161.782 234.015 162.32 234.211C163.479 234.65 164.758 234.656 165.921 234.226C167.083 233.795 168.051 232.96 168.644 231.872C168.919 231.363 169.08 230.8 169.117 230.223C169.153 229.645 169.064 229.067 168.855 228.527C168.616 227.888 168.212 227.323 167.683 226.89C167.167 226.488 166.567 226.208 165.927 226.071L167.449 225.487L167.285 225.393ZM166.512 231.311C166.407 231.607 166.24 231.877 166.022 232.103C165.804 232.329 165.54 232.505 165.247 232.621C164.957 232.725 164.647 232.765 164.339 232.737C164.032 232.708 163.734 232.613 163.467 232.457C162.862 232.157 162.393 231.639 162.156 231.007C161.921 230.373 161.921 229.676 162.156 229.042C162.249 228.743 162.409 228.468 162.624 228.24C162.839 228.012 163.104 227.836 163.397 227.725C163.691 227.615 164.006 227.573 164.319 227.602C164.631 227.632 164.933 227.732 165.201 227.896C165.806 228.201 166.268 228.729 166.489 229.369C166.743 229.99 166.751 230.684 166.512 231.311Z" fill="#002968"/>
<path d="M55.3479 206.446L53.4038 204.458L51.9985 205.862L49.7967 203.523L50.8742 202.47L44.2924 195.804L39.3502 200.739C39.1584 200.916 39.0037 201.129 38.8952 201.366C38.7866 201.603 38.7263 201.859 38.7178 202.119C38.7477 202.665 38.9917 203.178 39.397 203.546L44.5032 208.786L45.7212 207.593L47.9229 209.932L46.0022 211.826L47.9229 213.768C47.9229 213.768 55.3245 206.423 55.3479 206.446ZM43.8239 205.675L41.0835 202.891L45.0185 199.032L47.7589 201.815L43.8239 205.675ZM49.1877 208.552L46.986 206.213L48.4148 204.809L50.6165 207.148L49.1877 208.552Z" fill="#002968"/>
<path d="M45.5104 213.464C45.3947 212.121 44.7955 210.866 43.8239 209.932C42.9063 208.942 41.6552 208.326 40.3105 208.201C39.7141 208.108 39.1042 208.158 38.5305 208.345C37.9567 208.532 37.435 208.851 37.0079 209.277C36.5735 209.7 36.2437 210.218 36.0445 210.791C35.8453 211.363 35.7822 211.974 35.8602 212.575C35.965 213.906 36.5374 215.157 37.4764 216.107C38.4064 217.093 39.6632 217.708 41.0132 217.838C41.6113 217.922 42.2207 217.866 42.7937 217.675C43.3667 217.485 43.8877 217.164 44.3158 216.738C44.7523 216.32 45.0869 215.807 45.294 215.24C45.5011 214.672 45.5751 214.064 45.5104 213.464ZM40.4745 215.616C40.1452 215.662 39.8097 215.628 39.4959 215.518C39.1822 215.409 38.8993 215.225 38.6709 214.984C38.4381 214.751 38.2621 214.467 38.1565 214.154C38.0509 213.842 38.0185 213.51 38.0619 213.183C38.1249 212.461 38.4498 211.788 38.9754 211.288C39.4835 210.765 40.1678 210.448 40.8961 210.4C41.2269 210.354 41.5637 210.386 41.8805 210.491C42.1973 210.597 42.4856 210.773 42.7231 211.008C42.9567 211.245 43.1313 211.534 43.233 211.85C43.3347 212.167 43.3606 212.504 43.3086 212.832C43.253 213.561 42.9172 214.24 42.3717 214.727C41.8735 215.25 41.1962 215.568 40.4745 215.616Z" fill="#002968"/>
<path d="M106.784 68.7686C108.818 66.7485 110.325 64.2618 111.174 61.5259C112.023 58.7899 112.189 55.888 111.656 53.0734C109.525 44.3253 99.9448 40.3489 99.9448 40.3489C99.9448 40.3489 93.2225 48.5122 95.4945 57.8451C97.3449 65.8214 105.59 69.0493 106.784 68.7686Z" fill="#0086D1"/>
<path d="M156.932 54.0793C154.064 53.9399 151.204 54.507 148.607 55.7307C146.009 56.9543 143.752 58.797 142.036 61.0965C136.929 68.5581 140.536 78.3588 140.536 78.3588C140.536 78.3588 151.124 77.7974 156.464 69.8212C161.031 63.0145 157.846 54.7342 156.932 54.0793Z" fill="#0086D1"/>
<path d="M68.6286 122.708C68.3943 119.851 67.4626 117.095 65.9151 114.681C64.3675 112.267 62.2513 110.269 59.7514 108.86C51.694 104.861 42.4186 109.679 42.4186 109.679C42.4186 109.679 44.3392 120.088 52.9588 124.345C60.2901 127.994 68.0899 123.784 68.6286 122.708Z" fill="#0086D1"/>
<path d="M66.3801 174.308C69.1478 173.554 71.6883 172.135 73.7791 170.173C75.8698 168.212 77.447 165.768 78.3725 163.057C80.7148 154.402 74.3672 146.192 74.3672 146.192C74.3672 146.192 64.5062 149.981 61.8595 159.221C59.6343 167.103 65.2089 173.98 66.3801 174.308Z" fill="#0086D1"/>
<path d="M176.49 124.532C178.041 126.939 180.158 128.931 182.657 130.334C185.155 131.736 187.96 132.507 190.825 132.579C199.843 132.345 205.769 123.737 205.769 123.737C205.769 123.737 199.093 115.48 189.584 115.714C181.386 115.948 176.467 123.316 176.49 124.532Z" fill="#0086D1"/>
<path d="M164.709 146.613C163.138 149.012 162.181 151.759 161.919 154.613C161.658 157.468 162.101 160.343 163.21 162.986C167.121 171.103 177.404 173.091 177.404 173.091C177.404 173.091 182.276 163.735 178.107 155.057C174.546 147.549 165.81 146.098 164.709 146.613Z" fill="#0086D1"/>
<path d="M114.771 111.363C111.94 110.916 109.042 111.168 106.331 112.097C103.619 113.027 101.178 114.606 99.2187 116.696C93.4333 123.714 95.9395 133.748 95.9395 133.748C95.9395 133.748 106.503 134.31 112.687 126.988C117.98 120.696 115.732 112.135 114.771 111.363Z" fill="#0086D1"/>
<path d="M63.8973 79.5285C61.918 81.6003 60.4774 84.1249 59.7016 86.8815C58.9258 89.6381 58.8383 92.5425 59.4469 95.3406C61.7892 104.019 71.5799 107.714 71.5799 107.714C71.5799 107.714 78.0914 99.3872 75.5618 90.1245C73.4069 82.2184 65.0684 79.201 63.8973 79.5285Z" fill="#002968"/>
<path d="M201.553 154.589C201.59 151.724 200.928 148.892 199.621 146.341C198.315 143.789 196.405 141.594 194.057 139.947C186.422 135.269 176.725 139.081 176.725 139.081C176.725 139.081 177.615 149.607 185.766 154.706C192.722 159.057 200.897 155.618 201.553 154.589Z" fill="#002968"/>
<path d="M126.249 98.7556C128.04 100.987 130.352 102.746 132.981 103.879C135.611 105.013 138.478 105.486 141.333 105.258C150.28 104.112 155.386 94.9429 155.386 94.9429C155.386 94.9429 148.008 87.3877 138.475 88.604C130.23 89.7267 126.085 97.5626 126.249 98.7556Z" fill="#002968"/>
<path d="M182.978 112.767C185.76 112.07 188.329 110.704 190.46 108.788C192.592 106.871 194.221 104.463 195.205 101.773C197.852 93.1652 191.575 84.8147 191.575 84.8147C191.575 84.8147 181.62 88.3935 178.786 97.5626C176.373 105.399 181.831 112.392 182.978 112.767Z" fill="#002968"/>
<path d="M67.6917 130.988C64.9163 130.255 62.0037 130.211 59.2073 130.859C56.4109 131.508 53.8155 132.828 51.6471 134.707C45.1825 140.976 46.6347 151.315 46.6347 151.315C46.6347 151.315 57.0812 152.975 63.9909 146.309C69.8935 140.508 68.5115 131.76 67.6917 130.988Z" fill="#002968"/>
<path d="M88.819 150.683C86.5971 152.498 84.853 154.828 83.7386 157.469C82.6241 160.111 82.173 162.985 82.4246 165.84C83.7129 174.752 92.9414 179.641 92.9414 179.641C92.9414 179.641 100.413 172.156 99.0782 162.659C97.9305 154.543 90.0136 150.519 88.819 150.683Z" fill="#002968"/>
<path d="M83.8534 133.772C86.2683 132.226 88.2674 130.113 89.6761 127.617C91.0847 125.122 91.86 122.32 91.9343 119.457C91.6766 110.474 83.0805 104.557 83.0805 104.557C83.0805 104.557 74.7654 111.106 74.9528 120.696C75.2573 128.906 82.6354 133.818 83.8534 133.772Z" fill="#002968"/>
<path d="M121.962 97.1418C124.1 95.2328 125.737 92.8294 126.73 90.1421C127.722 87.4548 128.039 84.5655 127.654 81.7273C125.968 72.8856 116.505 68.418 116.505 68.418C116.505 68.418 109.478 76.2305 111.164 85.6569C112.71 93.7033 120.768 97.3757 121.962 97.1418Z" fill="#002968"/>
<path d="M112.921 99.0596C112.039 96.3312 110.499 93.8611 108.436 91.8666C106.374 89.8721 103.852 88.4143 101.093 87.6216C92.3324 85.5632 84.4156 92.2997 84.4156 92.2997C84.4156 92.2997 88.6551 101.96 98.0242 104.159C106.011 106.1 112.64 100.229 112.921 99.0596Z" fill="#002968"/>
<path d="M100.202 80.7683C100.031 77.899 99.152 75.1166 97.6441 72.6682C96.1363 70.2198 94.0462 68.1813 91.5595 66.7338C83.5723 62.5937 74.2032 67.2484 74.2032 67.2484C74.2032 67.2484 75.96 77.6807 84.4858 82.1015C91.7703 85.9142 99.6403 81.8676 100.202 80.7683Z" fill="#002968"/>
<path d="M152.06 85.4698C154.292 87.2724 156.934 88.499 159.752 89.0416C162.571 89.5841 165.479 89.4258 168.222 88.5808C176.678 85.5166 179.559 75.482 179.559 75.482C179.559 75.482 170.705 69.7045 161.617 73.0025C153.958 75.786 151.639 84.347 152.06 85.4698Z" fill="#002968"/>
<path d="M133.018 110.966C135.745 110.07 138.651 109.855 141.481 110.34C144.31 110.825 146.978 111.996 149.25 113.749C156.089 119.597 155.246 130.006 155.246 130.006C155.246 130.006 144.917 132.345 137.632 126.053C131.378 120.696 132.245 111.878 133.018 110.966Z" fill="#002968"/>
<path d="M164.896 124.977C167.589 123.986 169.996 122.351 171.908 120.214C173.819 118.076 175.176 115.503 175.858 112.72C177.544 103.878 170.377 96.3464 170.377 96.3464C170.377 96.3464 161.008 101.025 159.087 110.381C157.541 118.38 163.702 124.766 164.896 124.977Z" fill="#002968"/>
<path d="M145.338 178.939C148.028 177.949 150.433 176.313 152.341 174.176C154.249 172.038 155.6 169.465 156.277 166.682C157.963 157.841 150.819 150.309 150.819 150.309C150.819 150.309 141.45 154.987 139.506 164.343C137.983 172.343 144.144 178.705 145.338 178.939Z" fill="#002968"/>
<path d="M127.022 70.0318C129.58 68.7442 131.786 66.8526 133.447 64.5211C135.109 62.1896 136.175 59.4886 136.555 56.6523C137.257 47.6703 129.294 40.887 129.294 40.887C129.294 40.887 120.369 46.5475 119.62 56.1377C118.988 64.3011 125.804 69.9382 127.022 70.0318Z" fill="#002968"/>
<path d="M171.127 133.959C170.916 132.321 169.745 131.362 168.456 131.62C153.466 137.07 144.19 138.052 129.528 139.385L127.186 138.824C126.725 138.781 126.292 138.585 125.956 138.267C125.62 137.949 125.402 137.527 125.335 137.07L124.679 107.059C124.679 104.416 123.602 102.381 122.337 102.381C121.072 102.381 119.995 104.51 119.995 107.059L118.566 136.812C118.31 137.929 117.671 138.921 116.76 139.618C115.849 140.314 114.723 140.67 113.577 140.625C100.413 140.906 93.7378 141.093 80.059 137.444C78.1617 136.976 76.6861 136.602 76.6627 137.958C76.8123 138.892 77.2273 139.763 77.8585 140.468C78.4897 141.173 79.3104 141.682 80.2229 141.935C95.8693 148.297 103.482 147.104 117.887 150.566L114.608 202.704C114.326 206.259 112.265 207.078 112.265 207.078H130.465C129.481 206.61 128.544 204.388 128.122 203.148L125.546 150.192C140.442 147.14 155.037 142.772 169.159 137.14C169.802 136.915 170.349 136.476 170.707 135.897C171.065 135.318 171.213 134.634 171.127 133.959Z" fill="#002968"/>
<path d="M5.80884 137.327H4.68455L5.22327 137.14L5.83226 136.929L17.122 132.812L16.9581 130.707L4.68455 128.205H4.21609H4.80166L16.7004 126.31L16.3959 123.643H16.068L0 126.31L0.25765 129.655L11.3132 131.853L12.6014 132.041L11.1726 132.485L0.772951 136.321L1.0306 139.619L17.7076 139.783L17.5202 137.444L5.80884 137.327Z" fill="#002968"/>
<path d="M2.55307 98.6152V99.1298L2.1783 101.469L7.91688 105.539L9.01774 106.287L7.75292 106.638L1.07743 108.79L0.562134 111.808L11.2663 108.018L17.7779 109.001L18.1526 106.428L11.7114 105.469L2.55307 98.6152Z" fill="#002968"/>
<path d="M18.7382 76.4876C16.7885 75.6028 14.6148 75.3335 12.5078 75.7157C11.4909 75.9431 10.5488 76.4253 9.77018 77.1169C8.99158 77.8085 8.40215 78.6867 8.05745 79.6687C6.53497 83.5048 8.66644 87.0602 13.5618 88.8847C15.701 89.8606 18.1205 90.035 20.3778 89.3759C21.231 89.0733 22.0059 88.5846 22.646 87.9453C23.2862 87.306 23.7756 86.5322 24.0786 85.6802C24.4024 84.9427 24.5696 84.1463 24.5696 83.3411C24.5696 82.5359 24.4024 81.7394 24.0786 81.002C23.5704 79.9072 22.8293 78.9362 21.907 78.1566C20.9847 77.3769 19.9034 76.8074 18.7382 76.4876ZM22.2282 84.8615C22.0169 85.4284 21.6727 85.9366 21.2245 86.3436C20.7762 86.7505 20.237 87.0444 19.6517 87.2006C17.7945 87.2887 15.9421 86.9444 14.2411 86.1947C12.8299 85.7387 11.5569 84.9341 10.5403 83.8557C10.1541 83.3291 9.9135 82.7102 9.84266 82.0614C9.77183 81.4125 9.87324 80.7565 10.1367 80.1591C10.4002 79.5618 10.8164 79.0442 11.3436 78.6584C11.8709 78.2726 12.4904 78.0322 13.1402 77.9612C14.8213 77.9789 16.4803 78.3453 18.0121 79.0372C20.612 80.0196 21.5021 80.8383 22.0408 81.7505C22.33 82.2139 22.4929 82.7448 22.5135 83.2904C22.534 83.8361 22.4115 84.3777 22.1579 84.8615H22.2282Z" fill="#002968"/>
<path d="M24.0786 50.6175L22.8606 52.442L30.4495 57.3775L33.2134 59.0382L31.1991 58.7107L19.6048 57.4242L18.0823 59.7633L31.8549 68.9559L33.3071 66.7805L25.2965 61.5644L22.9543 60.1844L25.5073 60.5118L36.6566 61.7047L38.0619 59.623L24.2894 50.4304L24.0786 50.6175Z" fill="#002968"/>
<path d="M43.7069 39.7643L45.6275 41.004L47.9698 38.8287L50.8976 42.1034C50.6489 42.8353 50.2224 43.4943 49.6562 44.0214C49.1752 44.5025 48.5948 44.8731 47.9557 45.1074C47.3166 45.3417 46.634 45.4341 45.9555 45.3781C44.3999 44.8867 43.0127 43.9712 41.9502 42.7349C40.9931 41.7805 40.2015 40.6739 39.6079 39.4602C39.2617 38.7334 39.1659 37.9126 39.3353 37.1257C39.5048 36.3389 39.93 35.63 40.5448 35.1095C41.4277 34.2938 42.5558 33.7922 43.7537 33.6827H44.0582L43.7771 31.6477H43.5663C41.8805 31.7167 40.2828 32.4183 39.0926 33.6125C37.8871 34.6781 37.1473 36.1726 37.0314 37.7761C37.0037 39.0331 37.2514 40.2811 37.7571 41.4326C38.2629 42.5841 39.0144 43.6113 39.9592 44.4424C41.4408 46.241 43.5671 47.3909 45.8852 47.647C46.843 47.6918 47.7994 47.5337 48.6916 47.1829C49.5838 46.8322 50.3915 46.2968 51.0616 45.612C52.2587 44.4948 53.1256 43.0707 53.5678 41.4952V41.3315L48.0869 35.6007L43.7069 39.7643Z" fill="#002968"/>
<path d="M64.9278 30.7354L57.5262 19.3909L57.2452 19.5546L55.3948 20.7709L62.8432 32.1388C63.4346 32.8697 63.8512 33.7257 64.0612 34.6416C64.068 35.4162 63.8212 36.1718 63.3585 36.7936L63.1243 37.1444L65.1621 37.8228L65.3026 37.659C66.0996 36.7015 66.5238 35.4888 66.4972 34.244C66.4227 33.5201 66.1995 32.8193 65.8413 32.1856L64.9278 30.7354Z" fill="#002968"/>
<path d="M73.36 10.8533L71.3691 11.7655L78.2788 26.8291L80.5508 25.8L73.6411 10.7363L73.36 10.8533Z" fill="#002968"/>
<path d="M119.456 0H119.152L117.114 0.210516L118.051 11.3679C118.24 12.2811 118.081 13.232 117.606 14.0344C117.299 14.3887 116.917 14.6695 116.487 14.8557C116.057 15.042 115.591 15.1291 115.123 15.1104C113.483 15.2507 112.382 14.7362 112.054 13.6602C111.862 12.8937 111.744 12.1103 111.703 11.3211L110.813 0.725112L108.33 0.935629L109.267 12.3503C109.257 13.3681 109.542 14.3672 110.087 15.2274C110.648 16.05 111.444 16.6858 112.371 17.0527C113.298 17.4196 114.313 17.5008 115.287 17.2857C116.837 17.2579 118.322 16.658 119.456 15.6016C120.44 14.5958 120.627 13.7304 120.44 11.3679L119.456 0Z" fill="#002968"/>
<path d="M143.066 10.5726C143.066 10.5726 142.879 12.3736 142.879 13.7771L142.317 11.8357L138.194 0.842025L135.571 0.467773V0.795244L133.346 16.8647L135.922 17.2155L137.14 7.74229C137.14 7.74229 137.257 6.29206 137.374 5.07575C137.632 5.89442 137.937 6.75988 138.194 7.41482L141.989 17.964L144.471 18.2915L146.814 1.918L144.237 1.6607L143.066 10.5726Z" fill="#002968"/>
<path d="M162.203 6.33899L157.003 21.7535L159.368 22.5488L164.662 6.8302L162.296 6.03491L162.203 6.33899Z" fill="#002968"/>
<path d="M179.418 25.1449C179.418 25.1449 178.505 26.0104 177.802 26.7355C177.989 26.0104 178.224 25.1215 178.364 24.3964L180.355 13.473L178.013 12.1631V12.5841L174.944 29.3787L177.006 30.5014L190.005 18.8061L187.663 17.543L179.418 25.1449Z" fill="#002968"/>
<path d="M202.068 30.6186L206.987 34.8289L208.72 33.402L201.693 27.2737L201.482 27.5076L190.825 39.7643L198.11 46.0096L199.585 44.2787L194.245 39.6006L197.618 35.6943L201.787 39.2497L203.263 37.5188L199.093 34.057L202.068 30.6186Z" fill="#002968"/>
<path d="M223.523 51.7402C223.457 50.2373 222.85 48.8087 221.813 47.717L219.471 44.5359L219.237 44.723L206.12 54.6407L207.666 56.6289L213.311 52.3016C213.433 52.493 213.513 52.7084 213.545 52.9332C213.533 53.2186 213.486 53.5014 213.405 53.7752C213.124 54.9448 212.679 56.4418 211.999 58.4534L210.945 60.7924L211.062 60.9796L212.866 63.3186L214.412 58.6405L214.763 57.5645L215.091 56.4652C215.265 55.8839 215.39 55.2893 215.466 54.6875C216.142 55.4885 217.079 56.0267 218.113 56.2079C218.741 56.2743 219.376 56.2132 219.979 56.0283C220.583 55.8434 221.143 55.5385 221.626 55.1319C222.181 54.7494 222.641 54.2447 222.97 53.6566C223.299 53.0686 223.488 52.4129 223.523 51.7402ZM217.995 53.939C217.532 53.8264 217.095 53.6213 216.713 53.3359C216.33 53.0505 216.01 52.6907 215.77 52.2782L214.927 51.1788L219.143 47.9041L220.174 49.1205C220.591 49.6129 220.902 50.1863 221.087 50.8046C221.11 50.9754 221.11 51.1484 221.087 51.3192C221.09 51.6804 221.009 52.0373 220.85 52.3619C220.692 52.6866 220.46 52.9701 220.174 53.1905C219.88 53.4547 219.535 53.6571 219.161 53.7857C218.787 53.9143 218.39 53.9664 217.995 53.939Z" fill="#002968"/>
<path d="M229.918 78.1484C230.338 77.1008 230.428 75.9502 230.175 74.8503L229.894 72.9322C229.59 70.8505 230.082 70.1487 230.948 69.7511C231.201 69.6146 231.479 69.5316 231.765 69.5075C232.051 69.4833 232.339 69.5185 232.611 69.6108C232.99 69.7739 233.332 70.0111 233.618 70.3083C233.904 70.6056 234.127 70.957 234.274 71.3417C234.85 72.5591 235.006 73.9325 234.719 75.2479V75.5754L236.921 75.7859V75.5052C237.219 73.7432 236.974 71.9323 236.218 70.3125C235.997 69.6644 235.644 69.0693 235.18 68.5651C234.716 68.0608 234.153 67.6584 233.525 67.3834C232.897 67.1084 232.219 66.9669 231.533 66.9678C230.848 66.9687 230.17 67.112 229.543 67.3886C228.591 67.8265 227.844 68.614 227.458 69.5874C227.155 70.6738 227.155 71.8225 227.458 72.9089L227.716 74.5696C227.997 76.4409 227.716 77.5636 226.428 78.125C226.072 78.3303 225.668 78.4384 225.257 78.4384C224.845 78.4384 224.441 78.3303 224.085 78.125C223.352 77.7174 222.787 77.0623 222.493 76.2771C221.825 74.9637 221.619 73.4645 221.907 72.02V71.6691L219.565 71.5054V71.8095C219.321 73.6465 219.614 75.5147 220.408 77.1894C220.929 78.4143 221.822 79.445 222.961 80.1366C223.653 80.5747 224.442 80.8359 225.259 80.8971C226.076 80.9583 226.896 80.8176 227.646 80.4874C228.659 80.0049 229.466 79.1748 229.918 78.1484Z" fill="#002968"/>
<path d="M243.269 89.7737L242.964 89.8672L227.247 94.1711L227.903 96.557L243.901 92.1829L243.269 89.7737Z" fill="#002968"/>
<path d="M230.808 112.392L231.019 114.849L245.33 113.468C245.33 114.006 245.751 117.772 245.751 117.772H248.094L247.04 106.615H246.735L244.814 106.802C244.814 106.802 245.166 110.521 245.213 111.059L230.808 112.392Z" fill="#002968"/>
<path d="M247.672 133.678L248 130.637L247.532 130.824L237.46 134.871L230.925 134.169L230.644 136.742L237.062 137.444L246.571 143.9L246.876 141.023L240.973 137.21L239.849 136.508L241.09 136.087L247.672 133.678Z" fill="#002968"/>
<path d="M23.6101 174.425C23.6055 175.076 23.4079 175.711 23.0422 176.25C22.6765 176.79 22.1591 177.209 21.5552 177.455C20.9514 177.701 20.2881 177.763 19.649 177.633C19.0099 177.503 18.4236 177.187 17.9641 176.725C17.5045 176.263 17.1923 175.675 17.0668 175.036C16.9412 174.397 17.008 173.735 17.2586 173.134C17.5093 172.532 17.9326 172.019 18.4752 171.657C19.0178 171.296 19.6553 171.103 20.3075 171.103C20.7432 171.103 21.1746 171.189 21.5768 171.356C21.979 171.523 22.3442 171.769 22.6511 172.077C22.9581 172.386 23.2009 172.752 23.3655 173.155C23.5301 173.558 23.6132 173.989 23.6101 174.425Z" fill="#002968"/>
<path d="M231.112 174.425C231.108 175.076 230.91 175.711 230.544 176.25C230.179 176.79 229.661 177.209 229.057 177.455C228.453 177.701 227.79 177.763 227.151 177.633C226.512 177.503 225.926 177.187 225.466 176.725C225.007 176.263 224.694 175.675 224.569 175.036C224.443 174.397 224.51 173.735 224.761 173.134C225.011 172.532 225.435 172.019 225.977 171.657C226.52 171.296 227.157 171.103 227.81 171.103C228.245 171.103 228.677 171.189 229.079 171.356C229.481 171.523 229.846 171.769 230.153 172.077C230.46 172.386 230.703 172.752 230.868 173.155C231.032 173.558 231.115 173.989 231.112 174.425Z" fill="#002968"/>
</g>
<defs>
<clipPath id="clip0_97_70">
<rect width="248" height="250" fill="white"/>
</clipPath>
</defs>
</svg>
