<svg width="40" height="40" viewBox="0 0 40 40" fill="none" xmlns="http://www.w3.org/2000/svg">
<rect x="0.5" y="0.5" width="39" height="39" rx="4.5" fill="white" stroke="#ADADAD"/>
<path d="M20.82 12.07C20.94 11.93 21.11 11.86 21.33 11.86C21.55 11.86 21.87 11.96 22.29 12.16C22.73 12.36 23.08 12.64 23.34 13C23.62 13.36 23.76 13.63 23.76 13.81C23.76 13.97 23.7 14.11 23.58 14.23L17.52 20.95L23.67 27.28C23.79 27.4 23.85 27.55 23.85 27.73C23.85 27.89 23.71 28.16 23.43 28.54C23.15 28.9 22.8 29.18 22.38 29.38C21.96 29.56 21.64 29.65 21.42 29.65C21.22 29.65 21.05 29.58 20.91 29.44L13.98 21.76C13.7 21.48 13.56 21.23 13.56 21.01C13.56 20.79 13.66 20.58 13.86 20.38L20.82 12.07Z" fill="black"/>
</svg>
